<svg width="512" height="512" viewBox="0 0 512 512" fill="none" xmlns="http://www.w3.org/2000/svg">
  <defs>
    <linearGradient id="bgGradient" x1="0%" y1="0%" x2="100%" y2="100%">
      <stop offset="0%" style="stop-color:#667eea;stop-opacity:1" />
      <stop offset="100%" style="stop-color:#764ba2;stop-opacity:1" />
    </linearGradient>
  </defs>
  
  <!-- Hintergrund-Kreis -->
  <circle cx="256" cy="256" r="240" fill="url(#bgGradient)"/>
  
  <!-- Chat-Bubble -->
  <path d="M 140 180 Q 140 160 160 160 L 352 160 Q 372 160 372 180 L 372 300 Q 372 320 352 320 L 160 320 Q 140 320 140 300 Z" 
        fill="#ffffff" stroke="#e2e8f0" stroke-width="3"/>
  
  <!-- Chat-Bubble Spitze -->
  <path d="M 160 320 L 200 360 L 180 320 Z" fill="#ffffff" stroke="#e2e8f0" stroke-width="3"/>
  
  <!-- Antwort-Bubble -->
  <path d="M 272 220 Q 272 200 292 200 L 352 200 Q 372 200 372 220 L 372 260 Q 372 280 352 280 L 292 280 Q 272 280 272 260 Z" 
        fill="#667eea" stroke="#4c63d2" stroke-width="2"/>
  
  <!-- Antwort-Spitze -->
  <path d="M 272 260 L 252 280 L 272 280 Z" fill="#667eea" stroke="#4c63d2" stroke-width="2"/>
  
  <!-- Chat-Linien -->
  <rect x="180" y="200" width="100" height="10" rx="5" fill="#cbd5e1"/>
  <rect x="180" y="220" width="140" height="10" rx="5" fill="#cbd5e1"/>
  <rect x="180" y="240" width="80" height="10" rx="5" fill="#cbd5e1"/>
  
  <!-- Antwort-Linien -->
  <rect x="300" y="230" width="50" height="8" rx="4" fill="#ffffff"/>
  <rect x="300" y="242" width="60" height="8" rx="4" fill="#ffffff"/>
</svg>